<svg width="48.000000" height="26.741009" viewBox="0 0 48 26.741" fill="none" xmlns="http://www.w3.org/2000/svg" xmlns:xlink="http://www.w3.org/1999/xlink">
	<desc>
			Created with Pixso.
	</desc>
	<defs/>
	<path id="Vector" d="M46.89 1.81C47.23 0.76 46.89 0 45.31 0L40.05 0C38.72 0 38.1 0.66 37.77 1.39C37.77 1.39 35.1 7.49 31.32 11.46C30.09 12.61 29.54 12.97 28.87 12.97C28.53 12.97 28.05 12.61 28.05 11.56L28.05 1.81C28.05 0.55 27.66 0 26.55 0L18.3 0C17.46 0 16.96 0.58 16.96 1.13C16.96 2.31 18.85 2.59 19.05 5.93L19.05 13.18C19.05 14.77 18.74 15.06 18.08 15.06C16.3 15.06 11.97 8.93 9.4 1.91C8.89 0.55 8.39 0 7.05 0L1.8 0C0.3 0 0 0.66 0 1.39C0 2.69 1.78 9.16 8.28 17.72C12.62 23.57 18.74 26.74 24.3 26.74C27.64 26.74 28.05 26.03 28.05 24.82L28.05 20.4C28.05 19 28.37 18.71 29.42 18.71C30.2 18.71 31.54 19.08 34.65 21.9C38.21 25.24 38.8 26.74 40.8 26.74L46.06 26.74C47.56 26.74 48.31 26.03 47.87 24.64C47.4 23.26 45.7 21.25 43.44 18.87C42.22 17.51 40.38 16.05 39.83 15.32C39.05 14.38 39.27 13.97 39.83 13.13C39.83 13.13 46.23 4.68 46.89 1.81Z" fill="#FFFFFF" fill-opacity="1.000000" fill-rule="evenodd"/>
</svg>
